<svg width="512" height="512" viewBox="0 0 512 512" fill="none" xmlns="http://www.w3.org/2000/svg">
<g clip-path="url(#clip0)">
<path d="M461.249 162.032C460.678 158.607 461.249 147.219 461.249 147.219C461.249 147.219 457.253 139.812 453.842 138.67C450.418 137.529 423.645 132.976 399.143 130.972C374.641 128.98 280.042 135.245 280.042 135.245C261.463 130.729 242.46 127.537 238.211 126.842V167.155H349.434C384.063 167.155 402.553 151.77 409.389 151.2C416.224 150.629 422.502 151.77 424.772 155.195C427.055 158.605 437.886 170.009 450.416 170.579C462.961 171.15 461.82 165.456 461.249 162.032Z" fill="#FFB0B0"/>
<path d="M259.309 374.023C271.667 367.605 275.128 354.118 279.079 341.784C284.575 324.62 284.796 312.287 266.21 303.95C240.742 292.528 206.839 283.601 178.774 283.132C170.172 282.988 167.017 274.506 169.277 268.326H82.5348C60.5264 322.152 145.16 344.445 176.942 339.976C209.422 335.424 240.19 343.972 240.19 343.972C221.965 364.479 191.184 444.252 191.184 444.252L222.537 450.53L231.072 435.704C234.453 423.219 245.434 407.13 257.726 390.525C253.05 386.053 251.963 377.838 259.309 374.023V374.023Z" fill="#FCD462"/>
<path d="M251.991 383.806C258.375 372.642 267.248 363.269 273.703 351.842C276.979 346.039 283.111 338.724 284.689 332.062C289.448 311.969 281.058 312.41 268.691 306.778C237.12 292.399 196.929 283.434 162.154 281.882C154.264 281.53 150.979 274.253 152.253 268.326H82.5348C60.5264 322.152 145.16 344.445 176.942 339.976C209.422 335.424 240.19 343.972 240.19 343.972C221.965 364.479 191.184 444.252 191.184 444.252L222.537 450.53L231.072 435.704C234.071 424.626 243.063 410.707 253.634 396.113C250.628 393.118 249.267 388.572 251.991 383.806Z" fill="#FFB0B0"/>
<path d="M169.926 268.326H82.5348C60.5264 322.152 145.16 344.445 176.942 339.976C209.422 335.424 240.19 343.972 240.19 343.972C232.776 352.316 223.283 370.469 214.629 389.07C224.516 395.675 236.786 399.041 251.019 399.74C259.168 388.777 275.587 366.958 282.929 356.503C301.738 329.717 301.167 316.616 291.477 300.091C287.655 293.572 271.777 286.877 253.949 281.158C226.818 272.454 198.419 268.326 169.926 268.326V268.326Z" fill="#474C5B"/>
<path d="M261.247 472.091C251.328 471.3 238.828 455.391 235.275 445.057C234.345 442.352 231.604 440.677 228.829 441.37C222.651 442.913 211.629 443.647 197.526 436.13C194.645 434.594 191.062 435.996 189.843 439.025L180.003 463.479C180.003 463.479 176.7 472.969 194.506 481.333C212.313 489.695 223.284 480.939 238.048 486.246C252.811 491.554 280.79 490.775 285.965 483.047C291.142 475.319 273.324 473.054 261.247 472.091V472.091Z" fill="#D5D6DB"/>
<path d="M285.955 483.05C280.78 490.777 252.881 494.479 238.116 489.164C223.351 483.85 212.306 489.693 194.505 481.32C176.688 472.971 180.003 463.487 180.003 463.487L180.903 461.224C181.14 464.59 183.463 470.855 195.631 476.581C213.432 484.953 224.478 479.11 239.218 484.409C253.519 489.549 280.129 486.246 286.529 479.033C287.102 480.167 286.996 481.496 285.955 483.05V483.05Z" fill="#474C5B"/>
<path d="M237.414 129.421C237.414 129.421 235.672 109.912 242.586 110.278C242.586 110.278 250.203 119.233 259.667 115.11C259.667 115.11 266.4 114.541 264.971 106.607C264.971 106.607 264.838 104.75 268.089 104.46C268.089 104.46 270.359 100.882 268.308 100.312C268.308 100.312 270.723 98.3596 269.522 94.8284C268.322 91.2972 271.392 90.0729 274.134 90.68C276.875 91.287 278.708 87.224 274.548 82.8435C270.388 78.463 267.033 71.9719 269.476 65.0881C271.921 58.2029 274.265 44.4582 264.598 34.9333C254.932 25.4071 230.442 7.70139 211.428 21.9524C192.414 36.2034 185.229 49.6957 189.895 70.7438C194.561 91.792 200.36 95.7963 200.36 95.7963C200.36 95.7963 200.828 117.548 195.306 125.81L237.414 129.421Z" fill="#FFB9B9"/>
<path d="M259.747 26.1237C254.023 20.7358 247.533 16.6945 231.483 14.2281C231.483 14.2281 233.657 3.70978 214.865 0.636407C196.074 -2.43697 182.908 6.11365 180.783 15.7087C178.659 25.305 174.179 35.7009 181.457 42.3259L184.937 46.4399C184.937 46.4399 181.536 62.6714 184.92 68.6281C188.304 74.5861 190.859 79.1299 190.92 90.6735C190.938 94.0759 197.263 97.4809 200.357 95.795C200.357 95.795 197.535 74.8425 213.345 68.7442C221.023 65.783 227.036 66.4946 231.188 68.0109C233.732 68.9393 236.348 66.8326 236.048 64.1418C234.936 54.1807 237.513 38.0653 264.597 34.9332C264.597 34.932 265.472 31.5117 259.747 26.1237V26.1237Z" fill="#55300B"/>
<path d="M463.58 167.722C463.01 164.298 463.58 152.909 463.58 152.909C463.58 152.909 459.584 145.502 456.173 144.361C452.749 143.219 425.976 138.667 401.475 136.662C376.972 134.67 282.373 140.935 282.373 140.935C261.296 135.813 239.647 132.387 239.647 132.387L239.077 111.31C239.077 111.31 235.297 108.948 230.912 106.32H204.754C203.957 110.694 201.654 114.975 199.43 118.278C196.975 121.954 194.625 124.411 194.625 124.411C165.569 135.813 137.073 180.822 137.073 180.822C115.915 243.419 92.9779 236.967 70.7858 259.347C64.8928 265.281 65.1083 274.852 59.3748 286.69C32.0179 343.115 116.556 359.641 149.036 355.076C181.515 350.523 212.862 363.434 212.862 363.434C205.562 371.649 192.823 390.254 184.279 408.551C171.493 435.931 160.434 464.592 160.434 464.592L191.786 470.87L200.32 456.044C203.705 443.545 214.708 427.435 227.017 410.808C220.914 408.957 216.423 402.638 221.186 396.13C230.423 383.51 246.07 371.177 251.995 356.848C261.065 334.915 245.514 328.543 228.468 324.922C203.295 319.576 180.963 315.916 159.513 300.077C153.099 295.341 152.017 282.354 162.041 280.741C164.641 280.321 167.25 280.028 169.862 279.807C181.106 267.686 205.266 241.27 216.846 225.792C232.244 205.233 225.964 172.845 225.964 172.845C225.964 172.845 317.139 172.845 351.769 172.845C386.398 172.845 404.888 157.461 411.724 156.89C418.559 156.319 424.839 157.46 427.107 160.885C429.39 164.297 440.221 175.699 452.751 176.269C465.292 176.84 464.151 171.146 463.58 167.722Z" fill="#FFB9B9"/>
<path d="M163.856 286.238C163.856 286.238 171.184 246.371 186.568 225.811C189.328 222.127 189.603 225.438 191.132 221.247L143.783 230.374C126.893 258.491 87.9508 242.035 70.7833 259.347C64.8903 265.279 59.0496 273.257 53.316 285.097C25.9592 341.522 113.71 364.882 146.189 360.317C178.669 355.764 209.437 364.312 209.437 364.312C202.023 372.656 192.53 390.81 183.876 409.411C193.763 416.015 206.033 419.381 220.267 420.081C228.416 409.118 244.834 387.299 252.176 376.843C270.985 350.057 270.414 336.957 260.724 320.432C251.035 303.906 163.856 286.238 163.856 286.238V286.238Z" fill="#4D5C7D"/>
<path d="M216.843 225.792C201.459 246.353 163.856 286.24 163.856 286.24C163.856 286.24 91.848 294.881 70.7833 259.348C92.9766 236.97 115.912 243.42 137.07 180.823C137.07 180.823 165.568 135.814 194.622 124.412C194.622 124.412 195.813 121.956 198.27 118.279L208.294 135.402C208.294 135.402 193.189 131.818 185.637 135.402C178.085 138.973 155.44 162.413 155.838 172.753C156.236 183.08 168.156 201.357 193.189 187.844C218.222 174.332 225.961 172.846 225.961 172.846C225.961 172.846 232.239 205.231 216.843 225.792V225.792Z" fill="#492BA1"/>
<path d="M230.494 492.43C220.575 491.639 208.075 475.73 204.522 465.396C203.593 462.691 200.851 461.017 198.076 461.709C191.898 463.252 180.876 463.987 166.773 456.469C163.892 454.934 160.309 456.335 159.09 459.364L149.25 483.818C149.25 483.818 146.464 491.292 164.27 499.656C182.076 508.017 193.111 502.178 207.874 507.484C222.637 512.792 250.038 511.114 255.213 503.384C260.389 495.658 242.57 493.393 230.494 492.43V492.43Z" fill="#EBF0F3"/>
<path d="M255.202 503.39C250.027 511.116 222.128 514.818 207.364 509.503C192.599 504.189 181.555 510.032 163.752 501.659C145.934 493.31 149.249 483.826 149.249 483.826L150.149 481.563C150.386 484.929 152.708 491.194 164.877 496.92C182.678 505.292 193.723 499.449 208.464 504.748C222.765 509.888 249.374 506.585 255.775 499.372C256.348 500.506 256.243 501.835 255.202 503.39V503.39Z" fill="#4D5C7D"/>
</g>
<defs>
<clipPath id="clip0">
<rect width="512" height="512" fill="white"/>
</clipPath>
</defs>
</svg>
