<svg width="512" height="512" viewBox="0 0 512 512" fill="none" xmlns="http://www.w3.org/2000/svg">
<path d="M312 24H344V80H312V24Z" fill="#8098AB"/>
<path d="M464 80H432V24H464V80Z" fill="#8098AB"/>
<path d="M344 40H432V64H344V40Z" fill="#62798C"/>
<path d="M48 24H80V80H48V24Z" fill="#8098AB"/>
<path d="M200 80H168V24H200V80Z" fill="#8098AB"/>
<path d="M80 40H168V64H80V40Z" fill="#62798C"/>
<path d="M408 72L379.88 142.29C377.358 148.599 372.892 153.941 367.13 157.54L345.28 171.2L312 192V240L325.27 326.24L344 448L312 472L271.34 344.22L256 296L240.17 345.77L200 472L168 448L186.76 326.07L200 240V192L166.72 171.2L144.87 157.54C139.108 153.941 134.642 148.599 132.12 142.29L104 72L112 40H144V80L168 120L185.45 124.36L256 142L326.55 124.36L344 120L368 80V40H400L408 72Z" fill="#FFB9B9"/>
<path d="M325.27 326.24L271.34 344.22L256 296L240.17 345.77L186.76 326.07L200 240H312L325.27 326.24Z" fill="#4D5C7D"/>
<path d="M168 448L200 472V488H128V472L168 448Z" fill="#EBF0F3"/>
<path d="M312 472V488H384V472L344 448L312 472Z" fill="#EBF0F3"/>
<path d="M345.28 171.2L312 192V240H200V192L166.72 171.2L185.45 124.36L256 142L326.55 124.36L345.28 171.2Z" fill="#492BA1"/>
<path d="M232 104H280V128C280 134.365 277.471 140.47 272.971 144.971C268.47 149.471 262.365 152 256 152C249.635 152 243.53 149.471 239.029 144.971C234.529 140.47 232 134.365 232 128V104Z" fill="#FFB9B9"/>
<path d="M232 104V88L251.359 75.094C254.385 73.0766 257.941 72 261.578 72C263.997 72 266.393 72.4765 268.628 73.4023C270.863 74.3281 272.894 75.6851 274.604 77.3957C276.315 79.1064 277.672 81.1372 278.598 83.3723C279.523 85.6074 280 88.0029 280 90.4222V104H232Z" fill="#55300B"/>
</svg>
