<svg width="372" height="512" viewBox="0 0 372 512" fill="none" xmlns="http://www.w3.org/2000/svg">
<path d="M163.973 381.813L87.227 356.231L64.729 356.105L25.3759 469.17C24.1219 472.771 27.04 476.454 30.833 476.056L85.996 470.28C87.537 470.119 89.0689 470.652 90.1769 471.735L129.832 510.514C132.558 513.18 137.132 512.105 138.385 508.504L177.996 394.699L163.973 381.813Z" fill="#0083FD"/>
<path d="M177.996 394.699L186 371.704L72.71 333.178L64.73 356.105C96.9 379.06 135.852 393.112 177.996 394.699Z" fill="#0072FC"/>
<path d="M208.027 381.813L284.773 356.231L307.271 356.105L346.625 469.171C347.879 472.772 344.961 476.455 341.168 476.057L286.005 470.281C284.464 470.12 282.932 470.653 281.825 471.736L242.17 510.515C239.444 513.181 234.87 512.106 233.617 508.505L194.006 394.7L208.027 381.813Z" fill="#0083FD"/>
<path d="M194.004 394.699L186 371.704L299.29 333.178L307.27 356.105C275.1 379.06 236.148 393.112 194.004 394.699Z" fill="#0072FC"/>
<path d="M186 356.105C0.37999 356.105 0.225983 179.588 0.379983 176.485C5.25898 78.194 86.498 0 186 0C285.502 0 366.741 78.194 371.62 176.485C371.774 179.588 371.62 356.105 186 356.105Z" fill="#FF9838"/>
<path d="M186 352.969C86.4979 352.969 5.26195 274.775 0.38195 176.485C0.22795 179.588 0.147949 182.711 0.147949 185.852C0.147949 288.495 83.3569 371.704 186 371.704C288.643 371.704 371.852 288.495 371.852 185.852C371.852 182.711 371.772 179.588 371.618 176.485C366.738 274.775 285.502 352.969 186 352.969Z" fill="#FF8709"/>
<path d="M332.412 185.852C332.412 248.546 266.861 323.264 186 323.264C105.139 323.264 39.5879 244.435 39.5879 185.852C39.5879 182.705 39.6869 179.582 39.8829 176.484C44.7129 99.988 108.286 39.44 186 39.44C263.714 39.44 327.287 99.988 332.117 176.484C332.313 179.582 332.412 182.705 332.412 185.852Z" fill="#CE7430"/>
<path d="M186 313.529C108.287 313.529 44.7259 252.979 39.8949 176.485C39.6989 179.583 39.5879 182.704 39.5879 185.852C39.5879 266.713 105.139 332.264 186 332.264C266.861 332.264 332.412 266.713 332.412 185.852C332.412 182.704 332.301 179.583 332.105 176.485C327.274 252.979 263.713 313.529 186 313.529Z" fill="#BC672E"/>
<path d="M186.185 272.82C154.652 272.82 134.588 251.083 130.726 225.293C130.375 222.947 130.264 217.912 130.264 217.912C132.949 211.071 139.611 206.227 147.404 206.227C157.569 206.227 165.81 214.467 165.81 224.633C165.81 235.868 174.95 245.008 186.185 245.008C197.42 245.008 206.561 235.868 206.561 224.633C206.561 221.255 205.735 218.067 204.274 215.259C204.274 215.259 202.892 197.903 187.171 197.903C171.401 197.903 170.345 176.475 170.345 176.475C173.552 171.07 179.446 167.447 186.186 167.447C197.421 167.447 206.562 158.307 206.562 147.072C206.562 135.837 197.421 126.697 186.186 126.697C174.951 126.697 165.811 135.837 165.811 147.072C165.811 157.238 157.57 165.478 147.405 165.478C137.24 165.478 128.999 157.238 128.999 147.072C128.999 115.54 154.653 89.886 186.185 89.886C217.718 89.886 243.372 115.54 243.372 147.072C243.372 162.024 237.606 175.652 228.178 185.853C235.596 193.879 240.747 204.027 242.607 215.272C242.607 215.272 242.664 221.444 242.129 224.587C237.566 251.409 217.718 272.82 186.185 272.82Z" fill="#FFAA5C"/>
<path d="M186.185 185.523C179.445 185.523 173.568 181.889 170.362 176.485C168.732 179.231 167.78 182.427 167.78 185.852C167.78 196.018 176.02 204.258 186.186 204.258C194.043 204.258 200.863 208.736 204.261 215.267C205.722 212.459 206.562 209.278 206.562 205.9C206.561 194.663 197.42 185.523 186.185 185.523Z" fill="#EA9957"/>
<path d="M186.185 263.085C158.776 263.085 135.818 243.698 130.28 217.919C129.463 220.001 128.998 222.261 128.998 224.634C128.998 256.167 154.652 281.821 186.185 281.821C217.718 281.821 243.372 256.167 243.372 224.634C243.372 221.445 243.095 218.322 242.591 215.274C238.103 242.36 214.525 263.085 186.185 263.085Z" fill="#EA9957"/>
</svg>
