<svg width="120" height="120" viewBox="0 0 120 120" fill="none" xmlns="http://www.w3.org/2000/svg">
<path d="M60 120C93.1371 120 120 93.1371 120 60C120 26.8629 93.1371 0 60 0C26.8629 0 0 26.8629 0 60C0 93.1371 26.8629 120 60 120Z" fill="#382673"/>
<path d="M60 110C87.6142 110 110 87.6142 110 60C110 32.3858 87.6142 10 60 10C32.3858 10 10 32.3858 10 60C10 87.6142 32.3858 110 60 110Z" fill="#473080"/>
<path d="M22 31H99V53H22V31Z" fill="white"/>
<path opacity="0.2" d="M22 42H33V53H22V42ZM33 31H44V42H33V31ZM44 42H55V53H44V42ZM55 31H66V42H55V31ZM66 42H77V53H66V42ZM77 31H88V42H77V31ZM88 42H99V53H88V42Z" fill="#382673"/>
<path d="M100 27C98.9 27 98 27.9 98 29V106.4C99.4 105.3 100.7 104.1 102 102.8V29C102 27.9 101.1 27 100 27ZM21 27C19.9 27 19 27.9 19 29V103.8C20.3 105 21.6 106.1 23 107.2V29C23 27.9 22.1 27 21 27Z" fill="#FEC632"/>
<path d="M100 31C102.209 31 104 29.2091 104 27C104 24.7909 102.209 23 100 23C97.7909 23 96 24.7909 96 27C96 29.2091 97.7909 31 100 31Z" fill="#FFDE39"/>
<path d="M21 31C23.2091 31 25 29.2091 25 27C25 24.7909 23.2091 23 21 23C18.7909 23 17 24.7909 17 27C17 29.2091 18.7909 31 21 31Z" fill="#FFDE39"/>
<path d="M41 77H51V86H41V77Z" fill="#D44A90"/>
<path d="M48 92L41 86.2V77L48 82.8V92Z" fill="#A72973"/>
<path d="M23 83H48V92H23V83Z" fill="#F15A9E"/>
<path d="M80 86H70V77H80V86Z" fill="#D44A90"/>
<path d="M73 92L80 86.2V77L73 82.8V92Z" fill="#A72973"/>
<path d="M98 92H73V83H98V92Z" fill="#F15A9E"/>
<path d="M65.3 73.1V70.2M60 72.1V67.1V72.1ZM54.7 73.1V70.2V73.1Z" stroke="white" stroke-width="2" stroke-miterlimit="10" stroke-linecap="round"/>
</svg>
