<svg width="120" height="120" viewBox="0 0 120 120" fill="none" xmlns="http://www.w3.org/2000/svg">
<path d="M60 120C93.1371 120 120 93.1371 120 60C120 26.8629 93.1371 0 60 0C26.8629 0 0 26.8629 0 60C0 93.1371 26.8629 120 60 120Z" fill="#382673"/>
<path d="M60 110C87.6142 110 110 87.6142 110 60C110 32.3858 87.6142 10 60 10C32.3858 10 10 32.3858 10 60C10 87.6142 32.3858 110 60 110Z" fill="#473080"/>
<path d="M87 51.1C72 45.6 57.2 39.2 42.7 31.8C34 54.8 29.2 79.7 29 105.5C37.1 101.6 45.3 98 53.6 94.8C61.3 100.3 69.3 105.2 77.3 109.3C77.1 88.8 80.5 69.1 87 51.1V51.1Z" fill="#D44A90"/>
<path d="M33.6 63.1C34.3 63.7 35.1 64.2 36 64.4C39.2 65.2 41.5 68.7 41.6 72.9C41.9 79.3 47.4 82.9 51.7 79.9C54.6 78 58.1 78.9 60.3 81.7C63.7 86.1 69.7 84.8 71.7 79.9C73.1 76.7 76.4 75.1 79.5 75.9C79.7 76 79.9 76 80.1 76C81.7 67.4 84 59 86.9 51C71.9 45.5 57.1 39.1 42.6 31.7C38.9 41.9 35.8 52.3 33.6 63.1V63.1Z" fill="#A72973"/>
<path d="M83.3 49.7C70.8 45 58.5 39.6 46.4 33.6C38.2 55.4 33.5 79.1 33.1 103.6C39.9 100.5 46.7 97.5 53.6 94.8C60 99.4 66.6 103.5 73.3 107.2C73.3 86.9 76.8 67.5 83.3 49.7Z" fill="#F15A9E"/>
<path d="M41.6 72.9C41.9 79.3 47.3001 81.7 51.7001 78.7C54.6001 76.8 58.1001 77.7 60.3001 80.6C63.6001 85 69.8001 84.9 71.8001 79.9C72.7001 77.9 74.3 76.5 76.2 75.9C77.9 66.8 80.3001 58 83.3001 49.6C70.8001 45 58.5001 39.6 46.4001 33.6C42.6001 43.7 39.6 54.1 37.3 64.9C39.8 66.3 41.5 69.3 41.6 72.9V72.9Z" fill="#D44A90"/>
<path d="M74.4 13.8C78.8 11.5 84.2 14.6 84.4 19.6C84.6 22.9 87 25.5 90.2 26C95.1 26.8 97.6 32.4 94.9 36.6C93.1 39.3 93.5 42.9 95.8 45.2C99.3 48.7 98.1 54.7 93.4 56.5C90.4 57.7 88.6 60.8 89.1 64C89.9 68.9 85.3 73 80.5 71.8C77.3 71 74 72.4 72.6 75.4C70.3 79.9 64.2 80.5 61.1 76.6C59 74.1 55.5 73.3 52.6 74.8C48.2 77.1 42.8 74 42.6 69C42.4 65.7 40 63.1 36.8 62.6C31.9 61.8 29.4 56.2 32.1 52C33.9 49.3 33.5 45.7 31.2 43.4C27.7 39.9 28.9 33.9 33.6 32.1C36.6 30.9 38.4 27.8 37.9 24.6C37.1 19.7 41.7 15.6 46.5 16.8C49.7 17.6 53 16.2 54.4 13.2C56.7 8.70001 62.8 8.10001 65.9 12C67.9 14.5 71.5 15.2 74.4 13.8V13.8Z" fill="#00C2A9"/>
<path d="M87.0287 49.2123C89.7552 36.2409 81.4499 23.5153 68.4785 20.7889C55.5071 18.0625 42.7815 26.3677 40.0551 39.3391C37.3287 52.3105 45.6339 65.0361 58.6053 67.7625C71.5767 70.4889 84.3023 62.1837 87.0287 49.2123Z" fill="#00A58C"/>
<path d="M40.6 41.5C43.3 28.5 56 20.2 69 22.9C77.8 24.8 84.5 31.2 87 39.2C85.1 30.2 78 22.7 68.5 20.7C55.5 18 42.7 26.4 40 39.3C39.1 43.5 39.4 47.6 40.6 51.4C39.9 48.2 39.9 44.9 40.6 41.5V41.5Z" fill="#037C68"/>
<path d="M61.4 45L56.5 37.4C56.2 36.9 55.6 36.8 55.1 37.1L50.6 40C50.1 40.3 50 40.9 50.3 41.4L59.3 55.1C59.6 55.6 60.2 55.7 60.7 55.4L78.5 43.8C79 43.5 79.1 42.9 78.8 42.4L75.9 37.9C75.6 37.4 75 37.3 74.5 37.6L62.8 45.2C62.3 45.6 61.7 45.4 61.4 45V45Z" fill="white"/>
<path d="M18.4 45.5L19 44C19.2 43.6 19.8 43.6 19.9 44L20.5 45.5C21 46.7 21.9 47.6 23.1 48.1L24.6 48.7C25 48.9 25 49.5 24.6 49.6L23 50.1C21.8 50.6 20.9 51.5 20.4 52.7L19.8 54.2C19.6 54.6 19 54.6 18.9 54.2L18.3 52.7C17.8 51.5 16.9 50.6 15.7 50.1L14.2 49.5C13.8 49.3 13.8 48.7 14.2 48.6L15.7 48C17 47.6 17.9 46.6 18.4 45.5V45.5ZM89.4 85.5L90 84C90.2 83.6 90.8 83.6 90.9 84L91.5 85.5C92 86.7 92.9 87.6 94.1 88.1L95.6 88.7C96 88.9 96 89.5 95.6 89.6L94 90.1C92.8 90.6 91.9 91.5 91.4 92.7L90.8 94.2C90.6 94.6 90 94.6 89.9 94.2L89.3 92.7C88.8 91.5 87.9 90.6 86.7 90.1L85.2 89.5C84.8 89.3 84.8 88.7 85.2 88.6L86.7 88C88 87.6 88.9 86.6 89.4 85.5V85.5Z" fill="#FFDE39"/>
<path d="M19 75C20.1046 75 21 74.1046 21 73C21 71.8954 20.1046 71 19 71C17.8954 71 17 71.8954 17 73C17 74.1046 17.8954 75 19 75Z" fill="white"/>
<path d="M102 68C103.105 68 104 67.1046 104 66C104 64.8954 103.105 64 102 64C100.895 64 100 64.8954 100 66C100 67.1046 100.895 68 102 68Z" fill="white"/>
</svg>
