<svg width="120" height="120" viewBox="0 0 120 120" fill="none" xmlns="http://www.w3.org/2000/svg">
<path d="M94.4 38.5L95 37C95.2 36.6 95.8 36.6 95.9 37L96.5 38.5C97 39.7 97.9 40.6 99.1 41.1L100.6 41.7C101 41.9 101 42.5 100.6 42.6L99.1 43.2C97.9 43.7 97 44.6 96.5 45.8L95.9 47.3C95.7 47.7 95.1 47.7 95 47.3L94.4 45.8C93.9 44.6 93 43.7 91.8 43.2L90.3 42.6C89.9 42.4 89.9 41.8 90.3 41.7L91.8 41.1C93 40.6 93.9 39.6 94.4 38.5Z" fill="white"/>
<path d="M60 120C93.1371 120 120 93.1371 120 60C120 26.8629 93.1371 0 60 0C26.8629 0 0 26.8629 0 60C0 93.1371 26.8629 120 60 120Z" fill="#382673"/>
<path d="M60 110C87.6142 110 110 87.6142 110 60C110 32.3858 87.6142 10 60 10C32.3858 10 10 32.3858 10 60C10 87.6142 32.3858 110 60 110Z" fill="#473080"/>
<path d="M92.221 82.9326V78.7357C93.0547 78.3161 93.6105 77.3368 93.6105 76.3575V62.3679C93.6105 61.3886 93.0547 60.4093 92.221 59.9896V52.4352C92.4989 52.5751 92.7768 52.5751 93.1936 52.5751C93.4715 52.5751 93.6105 52.5751 93.7494 52.4352C93.8884 52.4352 94.0273 52.2953 94.3052 52.1554C94.7221 51.8756 95 51.3161 95 50.7565V41.943C95 41.3834 94.7221 40.8238 94.3052 40.544C94.1663 40.4041 94.0273 40.2642 93.7494 40.2642C93.6105 39.9845 93.3326 39.9845 93.1936 39.9845C92.9157 39.9845 92.4989 39.9845 92.221 40.1243V36.2073C92.221 31.3109 88.3303 27.3938 83.467 27.3938H84.1617C84.1617 26.2746 83.467 25.2953 82.4943 24.8756V19H43.5877V24.5959C42.1982 24.7358 41.0866 25.9948 41.0866 27.3938H42.754C37.8907 27.3938 34 31.3109 34 36.2073V82.7927C34 87.4093 37.6128 91.1865 42.0592 91.6062H41.2255C41.2255 93.1451 42.3371 94.2642 43.7267 94.4041V100H82.6333V94.1243C83.6059 93.7047 84.3007 92.7254 84.3007 91.6062C88.6082 91.3264 92.221 87.5492 92.221 82.9326V82.9326Z" fill="white"/>
<path d="M80.4146 91H39.7202C34.8757 91 31 87.1043 31 82.2348V35.7652C31 30.8957 34.8757 27 39.7202 27H80.2762C85.1207 27 88.9964 30.8957 88.9964 35.7652V82.0957C89.1348 87.1043 85.2592 91 80.4146 91V91Z" fill="white"/>
<path opacity="0.2" d="M80.4146 91H39.7202C34.8757 91 31 87.1043 31 82.2348V35.7652C31 30.8957 34.8757 27 39.7202 27H80.2762C85.1207 27 88.9964 30.8957 88.9964 35.7652V82.0957C89.1348 87.1043 85.2592 91 80.4146 91V91Z" fill="#382673"/>
<path d="M77.4146 91H36.7202C31.8757 91 28 87.1043 28 82.2348V35.7652C28 30.8957 31.8757 27 36.7202 27H77.2762C82.1207 27 85.9964 30.8957 85.9964 35.7652V82.0957C86.1348 87.1043 82.2592 91 77.4146 91V91Z" fill="white"/>
<path d="M37.1888 86C35.3864 86 34 84.6053 34 82.7921V36.2079C34 34.3947 35.3864 33 37.1888 33H77.8112C79.6136 33 81 34.3947 81 36.2079V82.6526C81 84.4658 79.6136 85.8605 77.8112 85.8605H37.1888V86Z" fill="#473080"/>
<path d="M35.3864 38.9627C35.3864 37.16 36.7729 35.7733 38.5752 35.7733H79.1976C79.8909 35.7733 80.4454 36.0507 81 36.328V36.1893C81 34.3867 79.6136 33 77.8112 33H37.1888C35.3864 33 34 34.3867 34 36.1893V82.3653C34 83.4747 34.5546 84.4453 35.3864 85V38.9627Z" fill="#382673"/>
<path d="M77.2143 15H43.7857C42.2536 15 41 16.2516 41 17.7812V27.5156H80V17.7812C80 16.2516 78.7464 15 77.2143 15ZM43.7857 104H77.2143C78.7464 104 80 102.748 80 101.219V91.4844H41V101.219C41 102.748 42.2536 104 43.7857 104Z" fill="#0CAFE8"/>
<path d="M74 91V101.111C74 102.7 72.65 104 71 104H77C78.65 104 80 102.7 80 101.111V91H74Z" fill="#0B90D3"/>
<path d="M90.375 52C91.25 52 92 51.191 92 50.2472V41.7528C92 40.809 91.25 40 90.375 40C88.5 40 87 41.618 87 43.6404V48.6292C87 50.382 88.5 52 90.375 52V52Z" fill="white"/>
<path opacity="0.4" d="M89.8571 48.3077V43.4286C89.8571 42.1099 90.7143 40.9231 92 40.2637C91.5714 40.1319 91.2857 40 90.8571 40C88.7143 40 87 41.5824 87 43.5604V48.4396C87 50.4176 88.7143 52 90.8571 52C91.2857 52 91.7143 51.8681 92 51.6044C90.7143 50.9451 89.8571 49.7582 89.8571 48.3077V48.3077Z" fill="#382673"/>
<path d="M89 79C90.65 79 92 77.7143 92 76.1429V61.8571C92 60.2857 90.65 59 89 59V79Z" fill="white"/>
<path d="M81 91.2281H38C38 92.7526 39.2484 94 40.7742 94H78.2258C79.7516 94 81 92.7526 81 91.2281ZM76.5613 15H71.0129C72.5387 15 73.7871 16.2474 73.7871 17.7719V27.4737H79.3355V17.7719C79.3355 16.2474 78.0871 15 76.5613 15Z" fill="#0B90D3"/>
<path d="M81 27H38C38 25.35 39.2484 24 40.7742 24H78.2258C79.7516 24 81 25.35 81 27Z" fill="#0CAFE8"/>
<path d="M78.2 24H74C75.54 24 76.8 25.35 76.8 27H81C81 25.35 79.74 24 78.2 24Z" fill="#0B90D3"/>
<path d="M78.2 94H74C75.54 94 76.8 92.65 76.8 91H81C81 92.65 79.74 94 78.2 94Z" fill="#007BC6"/>
<path d="M72.0534 60.4222C72.3203 52.2548 65.9157 45.4174 57.7483 45.1506C49.5809 44.8837 42.7435 51.2883 42.4766 59.4557C42.2098 67.6231 48.6144 74.4605 56.7818 74.7274C64.9492 74.9943 71.7866 68.5896 72.0534 60.4222Z" fill="#00C2A9"/>
<path opacity="0.4" d="M88 59H89V79H88V59Z" fill="#382673"/>
<path d="M57.875 57.75C60.6917 57.75 62.7667 58.275 64.1 59.325C65.45 60.375 66.125 61.8083 66.125 63.625C66.125 65.4417 65.4417 66.875 64.075 67.925C62.7083 68.975 60.5583 69.5 57.625 69.5C56.0583 69.5 54.5917 69.2417 53.225 68.725C51.8583 68.2083 50.7 67.5083 49.75 66.625L51 65.125C51.95 66.0083 52.95 66.65 54 67.05C55.05 67.4333 56.175 67.625 57.375 67.625C59.075 67.625 60.3083 67.275 61.075 66.575C61.8583 65.8583 62.25 64.875 62.25 63.625C62.25 62.375 61.8667 61.4 61.1 60.7C60.35 59.9833 59.1917 59.625 57.625 59.625C56.925 59.625 56.175 59.7333 55.375 59.95C54.5917 60.15 53.8833 60.5 53.25 61H50.5V51.5H64.625V53.25H54.125V58.5C54.425 58.3667 54.7667 58.2417 55.15 58.125C55.4833 58.0417 55.875 57.9583 56.325 57.875C56.7917 57.7917 57.3083 57.75 57.875 57.75Z" fill="white"/>
</svg>
