<svg width="512" height="512" viewBox="0 0 512 512" fill="none" xmlns="http://www.w3.org/2000/svg">
<path d="M352 376H296L248 312L216 264L192 304L144 352L120 328L189.7 230.427C192.887 225.965 197.093 222.329 201.968 219.819C206.843 217.31 212.247 216.001 217.73 216C226.867 216 235.63 219.63 242.091 226.091L312 296L328 312C338.407 322.406 345.301 335.804 347.72 350.32L352 376Z" fill="#4D5C7D"/>
<path d="M416 144L392 120L384 144L392 164V184H416V144Z" fill="#FFB9B9"/>
<path d="M352 376L424.778 289.99C429.582 284.312 433.978 278.3 437.932 272L401.327 210.1L372.208 214.26C368.441 214.798 364.861 216.241 361.775 218.466C358.688 220.691 356.186 223.631 354.485 227.034C352.852 230.301 352.001 233.903 352 237.556V272L328 312C338.407 322.406 345.301 335.804 347.72 350.32L352 376Z" fill="#492BA1"/>
<path d="M472 376H40C31.1634 376 24 383.163 24 392C24 400.837 31.1634 408 40 408H472C480.837 408 488 400.837 488 392C488 383.163 480.837 376 472 376Z" fill="#492BA1"/>
<path d="M416 104C411.192 104 406.479 105.339 402.39 107.866C398.3 110.394 394.995 114.011 392.845 118.311L392 120L416 144L424 104H416Z" fill="#55300B"/>
<path d="M432 352C430.47 351.999 428.973 351.56 427.686 350.734C426.398 349.908 425.374 348.731 424.735 347.341C424.097 345.951 423.87 344.407 424.081 342.893C424.293 341.378 424.935 339.955 425.93 338.794L433.93 329.46C434.614 328.662 435.448 328.007 436.385 327.532C437.322 327.057 438.343 326.77 439.391 326.69C440.438 326.609 441.491 326.736 442.49 327.062C443.488 327.389 444.413 327.909 445.211 328.592C446.008 329.276 446.663 330.11 447.139 331.047C447.614 331.984 447.9 333.006 447.981 334.053C448.061 335.101 447.935 336.154 447.608 337.152C447.282 338.151 446.762 339.075 446.078 339.873L438.078 349.206C437.327 350.084 436.395 350.788 435.346 351.27C434.296 351.753 433.155 352.002 432 352V352Z" fill="#FBB540"/>
<path d="M456 324C454.47 323.999 452.973 323.56 451.685 322.734C450.397 321.909 449.373 320.731 448.734 319.341C448.096 317.951 447.869 316.407 448.081 314.892C448.292 313.377 448.934 311.954 449.93 310.793L473.93 282.793C474.614 281.995 475.448 281.34 476.385 280.865C477.322 280.39 478.343 280.104 479.391 280.023C480.438 279.943 481.492 280.069 482.49 280.396C483.489 280.722 484.413 281.242 485.211 281.926C486.009 282.61 486.664 283.444 487.139 284.381C487.614 285.318 487.9 286.339 487.981 287.387C488.061 288.434 487.935 289.488 487.608 290.486C487.282 291.485 486.762 292.409 486.078 293.207L462.078 321.207C461.327 322.084 460.395 322.789 459.346 323.271C458.296 323.753 457.155 324.002 456 324V324Z" fill="#FBB540"/>
<path d="M437.932 272C442.272 265.085 446.067 257.842 449.283 250.338L456.552 233.377C461.384 222.103 462.389 209.556 459.414 197.657L448 152L444.5 140.168L460.957 156.321L472 160L480 152V128L464 120L444.756 100.756C441.71 97.7107 437.58 96 433.273 96H432.247C427.938 96 423.806 97.7117 420.759 100.759C417.712 103.806 416 107.938 416 112.247V208L401.327 210.1L400 216L395.166 235.337C394.169 239.326 394.016 243.478 394.718 247.529C395.419 251.58 396.96 255.44 399.24 258.861C401.935 262.903 405.586 266.217 409.869 268.509C414.152 270.801 418.934 272 423.792 272H438" fill="#FFB9B9"/>
<path d="M416 184H408.107V136.107L416 144V184Z" fill="#FFB0B0"/>
<path d="M86.0631 353.818C96.1847 354.962 111.849 341.439 117.435 331.761C118.897 329.228 121.979 328.084 124.632 329.321C130.539 332.076 141.471 334.966 157.11 330.176C160.304 329.198 163.632 331.305 164.266 334.582L169.383 361.045C169.383 361.045 170.726 369.09 151.201 374.005C131.676 378.918 121.727 370.903 105.857 373.344C89.9863 375.787 62.7797 368.751 59.0873 359.983C55.393 351.218 73.7409 352.426 86.0631 353.818V353.818Z" fill="#EBF0F3"/>
</svg>
