<svg width="120" height="120" viewBox="0 0 120 120" fill="none" xmlns="http://www.w3.org/2000/svg">
<path d="M60 120C93.1371 120 120 93.1371 120 60C120 26.8629 93.1371 0 60 0C26.8629 0 0 26.8629 0 60C0 93.1371 26.8629 120 60 120Z" fill="#382673"/>
<path d="M60 110C87.6142 110 110 87.6142 110 60C110 32.3858 87.6142 10 60 10C32.3858 10 10 32.3858 10 60C10 87.6142 32.3858 110 60 110Z" fill="#473080"/>
<path d="M43 30H77V54H43V30Z" fill="#FEC632"/>
<path d="M60 105.5C78.5015 105.5 93.5 90.5015 93.5 72C93.5 53.4985 78.5015 38.5 60 38.5C41.4985 38.5 26.5 53.4985 26.5 72C26.5 90.5015 41.4985 105.5 60 105.5Z" fill="#FFDE39"/>
<path d="M60 99.2C75.0222 99.2 87.2 87.0221 87.2 72C87.2 56.9778 75.0222 44.8 60 44.8C44.9779 44.8 32.8 56.9778 32.8 72C32.8 87.0221 44.9779 99.2 60 99.2Z" fill="#FEC632"/>
<path d="M33.7001 73.8C33.7001 58.8 45.9001 46.6 60.9001 46.6C71.2001 46.6 80.1 52.3 84.7 60.7C80.4 51.4 71 44.8 60 44.8C45 44.8 32.8 57 32.8 72C32.8 76.7 34.0001 81.2 36.2001 85.1C34.6001 81.6 33.7001 77.8 33.7001 73.8V73.8Z" fill="#F9A74E"/>
<path d="M60 94.6C72.4817 94.6 82.6 84.4817 82.6 72C82.6 59.5184 72.4817 49.4 60 49.4C47.5184 49.4 37.4 59.5184 37.4 72C37.4 84.4817 47.5184 94.6 60 94.6Z" fill="#FFDE39"/>
<path d="M43 34H77V37H43V34Z" fill="#F9A74E"/>
<path d="M60 80.2L66.9 83.8C67.9 84.3 69.1 83.5 68.9 82.3L67.6 74.6L73.2 69.2C74 68.4 73.6 67 72.4 66.8L64.7 65.7L61.3 58.7C60.8 57.7 59.3 57.7 58.8 58.7L55.4 65.7L47.7 66.8C46.6 67 46.1 68.4 46.9 69.2L52.5 74.6L51.2 82.3C51 83.4 52.2 84.3 53.2 83.8L60 80.2Z" fill="white"/>
<path d="M32.5 6.6L45 31H75L59.1 0C49.5 0.1 40.5 2.5 32.5 6.6Z" fill="#D44A90"/>
<path d="M57.9 0.0999999L43.5 28.1L45 31H72L73.5 28.1L59.1 0C58.7 0 58.3 -9.68575e-08 57.9 0.0999999Z" fill="#A72973"/>
<path d="M76.1 36H43.9C41.7 36 40 34.2 40 32.1V32C40 29.8 41.8 28.1 43.9 28.1H76C78.2 28.1 79.9 29.9 79.9 32V32.1C80 34.2 78.2 36 76.1 36V36Z" fill="#FFDE39"/>
<path d="M43.9 33C43.4 33 43 32.6 43 32.1V32C43 31.5 43.4 31.1 43.9 31.1H76C76.5 31.1 76.9 31.5 76.9 32V32.1C76.9 32.6 76.5 33 76 33H43.9Z" fill="#473080"/>
<path d="M45 31H75L87.5 6.6C79.5 2.5 70.5 0.1 60.9 0L45 31Z" fill="#F15A9E"/>
</svg>
