<svg width="372" height="512" viewBox="0 0 372 512" fill="none" xmlns="http://www.w3.org/2000/svg">
<path d="M85.028 355.114L64.73 356.104L25.376 469.17C24.122 472.771 27.04 476.454 30.833 476.056L85.996 470.28C87.537 470.119 89.069 470.652 90.177 471.735L129.832 510.514C132.558 513.18 137.132 512.105 138.385 508.504L177.996 394.699L166.316 383.363L85.028 355.114Z" fill="#FF4755"/>
<path d="M177.996 394.699L186 371.704L72.71 333.178L64.73 356.105C96.9 379.06 135.852 393.112 177.996 394.699Z" fill="#FC2B3A"/>
<path d="M286.972 355.114L307.27 356.104L346.624 469.17C347.878 472.771 344.96 476.454 341.167 476.056L286.004 470.28C284.463 470.119 282.931 470.652 281.824 471.735L242.169 510.514C239.443 513.18 234.869 512.105 233.616 508.504L194.005 394.699L205.685 383.363L286.972 355.114Z" fill="#FF4755"/>
<path d="M194.004 394.699L186 371.704L299.29 333.178L307.27 356.105C275.1 379.06 236.148 393.112 194.004 394.699Z" fill="#FC2B3A"/>
<path d="M186 360.116C0.14801 360.116 0.226018 179.587 0.380018 176.484C5.25902 78.194 86.498 0 186 0C285.502 0 366.741 78.194 371.62 176.485C371.774 179.588 371.852 360.116 186 360.116Z" fill="#FFE27A"/>
<path d="M186 352.969C86.498 352.969 5.26201 274.775 0.382011 176.484C0.228011 179.587 0.14801 182.71 0.14801 185.851C0.14801 288.494 83.357 371.703 186 371.703C288.643 371.703 371.852 288.494 371.852 185.851C371.852 182.709 371.772 179.587 371.618 176.484C366.738 274.775 285.502 352.969 186 352.969Z" fill="#F9CF58"/>
<path d="M186 320.126C39.883 320.126 39.687 176.444 39.883 173.346C44.714 96.85 108.286 36.302 186 36.302C263.714 36.302 327.286 96.85 332.117 173.346C332.313 176.443 332.117 320.126 186 320.126Z" fill="#FFBA57"/>
<path d="M186 313.529C108.287 313.529 44.726 252.979 39.895 176.484C39.699 179.582 39.588 182.704 39.588 185.851C39.588 266.712 105.139 332.263 186 332.263C266.861 332.263 332.412 266.712 332.412 185.851C332.412 182.703 332.301 179.582 332.105 176.484C327.274 252.979 263.713 313.529 186 313.529Z" fill="#FFAC3E"/>
<path d="M194.35 272.82C184.185 272.82 175.944 264.58 175.944 254.414V244.679V151.263C175.944 151.263 164.931 162.308 151.754 155.681C141.48 150.514 141.48 137.215 141.48 137.215L164.173 98.909C167.487 93.315 173.507 89.884 180.009 89.884H194.35C204.515 89.884 212.756 98.124 212.756 108.29V244.679V254.414C212.756 264.58 204.515 272.82 194.35 272.82Z" fill="#FFE27A"/>
<path d="M173.415 136.8C168.53 145.047 158.143 148.623 149.48 144.518C145.974 142.857 143.271 140.276 141.474 137.228C136.363 145.874 139.13 156.997 147.64 162.252C156.416 167.672 168.143 164.436 173.399 155.561L175.945 151.262V137.491C175.945 136.109 174.12 135.61 173.415 136.8Z" fill="#F9CF58"/>
<path d="M194.35 263.085C184.185 263.085 175.944 254.845 175.944 244.679V263.414C175.944 273.58 184.185 281.82 194.35 281.82C204.515 281.82 212.756 273.58 212.756 263.414V244.679C212.756 254.845 204.515 263.085 194.35 263.085Z" fill="#F9CF58"/>
</svg>
