<svg width="120" height="121" viewBox="0 0 120 121" fill="none" xmlns="http://www.w3.org/2000/svg">
<path d="M60 120C93.1371 120 120 93.1371 120 60C120 26.8629 93.1371 0 60 0C26.8629 0 0 26.8629 0 60C0 93.1371 26.8629 120 60 120Z" fill="#382673"/>
<path d="M60 110C87.6142 110 110 87.6142 110 60C110 32.3858 87.6142 10 60 10C32.3858 10 10 32.3858 10 60C10 87.6142 32.3858 110 60 110Z" fill="#473080"/>
<path d="M104 89H16L23 82H97L104 89Z" fill="white"/>
<path opacity="0.2" d="M104 89H16L23 82H97L104 89Z" fill="#382673"/>
<path d="M16 89H104V96H16V89Z" fill="white"/>
<path d="M51 81L23 55L30 50H51V81Z" fill="#00A58C"/>
<path d="M23 55H51V86H23V55Z" fill="#00C2A9"/>
<path d="M98 65L70 81V60H91L98 65Z" fill="#D44A90"/>
<path d="M70 65H98V86H70V65Z" fill="#F15A9E"/>
<path d="M46 44H74V86H46V44Z" fill="#FFDE39"/>
<path d="M74 44H46L50 38H70L74 44Z" fill="#FEC632"/>
<path d="M60 31.8L65.1 34.5C65.8 34.9 66.7 34.3 66.6 33.4L65.6 27.7L69.7 23.7C70.3 23.1 70 22.1 69.1 22L63.4 21.2L60.9 16C60.5 15.2 59.5 15.2 59.1 16L56.6 21.1L50.9 22C50.1 22.1 49.7 23.1 50.3 23.7L54.4 27.7L53.4 33.4C53.3 34.2 54.1 34.9 54.9 34.5L60 31.8V31.8ZM63.3 73.7H58.9V65.1C58.9 64.1 58.9 63.1 59 62.2C58.7 62.5 58.4 62.9 58 63.2L56.2 64.7L53.8 62L59.4 57.5H63.3V73.7V73.7Z" fill="white"/>
<path d="M16 100.9C27 112.7 42.6 120.2 60 120.2C77.4 120.2 93 112.7 104 100.9V96H16V100.9Z" fill="#0CAFE8"/>
</svg>
