<svg width="372" height="512" viewBox="0 0 372 512" fill="none" xmlns="http://www.w3.org/2000/svg">
<path d="M165.468 382.791L82.938 354.249L64.729 356.104L25.3759 469.17C24.1219 472.771 27.04 476.454 30.833 476.056L85.996 470.28C87.537 470.119 89.0689 470.652 90.1769 471.735L129.832 510.514C132.558 513.18 137.132 512.105 138.385 508.504L177.996 394.699L165.468 382.791Z" fill="#98DB7C"/>
<path d="M177.996 394.699L186 371.704L72.71 333.178L64.73 356.105C96.9 379.06 135.852 393.112 177.996 394.699V394.699Z" fill="#82D361"/>
<path d="M206.532 382.791L289.062 354.249L307.271 356.104L346.625 469.17C347.878 472.771 344.961 476.454 341.168 476.056L286.005 470.28C284.464 470.119 282.932 470.652 281.825 471.735L242.17 510.514C239.444 513.18 234.87 512.105 233.617 508.504L194.006 394.699L206.532 382.791Z" fill="#98DB7C"/>
<path d="M194.004 394.699L186 371.704L299.29 333.178L307.27 356.105C275.1 379.06 236.148 393.112 194.004 394.699Z" fill="#82D361"/>
<path d="M186 359.438C0.37999 359.438 0.225983 179.588 0.379983 176.485C5.25898 78.194 86.498 0 186 0C285.436 0 366.633 78.09 371.61 176.288C371.771 179.456 371.61 359.438 186 359.438Z" fill="#E0E0E0"/>
<path d="M186 352.969C86.4979 352.969 5.26195 274.775 0.38195 176.484C0.22795 179.587 0.147949 182.71 0.147949 185.851C0.147949 288.494 83.3569 371.703 186 371.703C288.643 371.703 371.852 288.494 371.852 185.851C371.852 182.709 371.772 179.587 371.618 176.484C366.738 274.775 285.502 352.969 186 352.969Z" fill="#CECECE"/>
<path d="M186 320.63C39.588 320.63 39.687 179.582 39.883 176.484C44.714 99.988 108.286 39.44 186 39.44C263.714 39.44 327.286 99.988 332.117 176.484C332.313 179.582 332.117 320.63 186 320.63V320.63Z" fill="#9E9E9E"/>
<path d="M186 313.529C108.287 313.529 44.7259 252.979 39.8949 176.485C39.6989 179.583 39.5879 182.705 39.5879 185.852C39.5879 266.713 105.139 332.264 186 332.264C266.861 332.264 332.412 266.713 332.412 185.852C332.412 182.704 332.301 179.583 332.105 176.485C327.274 252.979 263.713 313.529 186 313.529Z" fill="#898989"/>
<path d="M228.146 272.82H144.224C134.059 272.82 126.21 255.125 126.975 251.081C129.098 239.851 134.095 229.269 141.556 220.45L200.605 150.662C206.13 144.132 203.665 137.096 202.777 135.094C201.698 132.661 198.343 126.972 190.527 126.708C190.301 126.7 190.066 126.696 189.831 126.696C178.852 126.696 169.921 135.628 169.921 146.607C169.921 156.772 161.68 165.013 151.515 165.013C141.35 165.013 133.109 156.773 133.109 146.607C133.109 115.331 158.554 89.884 189.831 89.884C190.478 89.884 191.122 89.895 191.763 89.917C211.333 90.577 228.445 102.171 236.428 120.172C244.53 138.442 241.571 159.236 228.706 174.44L169.658 244.228C169.441 244.485 169.228 244.745 169.02 245.009H228.147C234.887 245.009 240.781 248.632 243.988 254.037C245.616 256.783 238.311 272.82 228.146 272.82V272.82Z" fill="#E0E0E0"/>
<path d="M228.146 263.085H144.224C136.314 263.085 129.589 258.086 126.986 251.083C126.221 255.128 125.818 259.254 125.818 263.414C125.818 273.58 134.059 281.82 144.224 281.82H228.146C238.311 281.82 246.552 273.58 246.552 263.414C246.552 259.989 245.599 256.793 243.97 254.047C240.763 259.451 234.886 263.085 228.146 263.085Z" fill="#CECECE"/>
</svg>
