<svg width="120" height="120" viewBox="0 0 120 120" fill="none" xmlns="http://www.w3.org/2000/svg">
<path d="M94.4 38.5L95 37C95.2 36.6 95.8 36.6 95.9 37L96.5 38.5C97 39.7 97.9 40.6 99.1 41.1L100.6 41.7C101 41.9 101 42.5 100.6 42.6L99.1 43.2C97.9 43.7 97 44.6 96.5 45.8L95.9 47.3C95.7 47.7 95.1 47.7 95 47.3L94.4 45.8C93.9 44.6 93 43.7 91.8 43.2L90.3 42.6C89.9 42.4 89.9 41.8 90.3 41.7L91.8 41.1C93 40.6 93.9 39.6 94.4 38.5Z" fill="white"/>
<path d="M60 120C93.1371 120 120 93.1371 120 60C120 26.8629 93.1371 0 60 0C26.8629 0 0 26.8629 0 60C0 93.1371 26.8629 120 60 120Z" fill="#382673"/>
<path d="M60 110C87.6142 110 110 87.6142 110 60C110 32.3858 87.6142 10 60 10C32.3858 10 10 32.3858 10 60C10 87.6142 32.3858 110 60 110Z" fill="#473080"/>
<path d="M92.221 82.9326V78.7357C93.0547 78.3161 93.6105 77.3368 93.6105 76.3575V62.3679C93.6105 61.3886 93.0547 60.4093 92.221 59.9896V52.4352C92.4989 52.5751 92.7768 52.5751 93.1936 52.5751C93.4715 52.5751 93.6105 52.5751 93.7494 52.4352C93.8884 52.4352 94.0273 52.2953 94.3052 52.1554C94.7221 51.8756 95 51.3161 95 50.7565V41.943C95 41.3834 94.7221 40.8238 94.3052 40.544C94.1663 40.4041 94.0273 40.2642 93.7494 40.2642C93.6105 39.9845 93.3326 39.9845 93.1936 39.9845C92.9157 39.9845 92.4989 39.9845 92.221 40.1243V36.2073C92.221 31.3109 88.3303 27.3938 83.467 27.3938H84.1617C84.1617 26.2746 83.467 25.2953 82.4943 24.8756V19H43.5877V24.5959C42.1982 24.7358 41.0866 25.9948 41.0866 27.3938H42.754C37.8907 27.3938 34 31.3109 34 36.2073V82.7927C34 87.4093 37.6128 91.1865 42.0592 91.6062H41.2255C41.2255 93.1451 42.3371 94.2642 43.7267 94.4041V100H82.6333V94.1243C83.6059 93.7047 84.3007 92.7254 84.3007 91.6062C88.6082 91.3264 92.221 87.5492 92.221 82.9326V82.9326Z" fill="white"/>
<path d="M80.4146 91H39.7202C34.8757 91 31 87.1043 31 82.2348V35.7652C31 30.8957 34.8757 27 39.7202 27H80.2762C85.1207 27 88.9964 30.8957 88.9964 35.7652V82.0957C89.1348 87.1043 85.2592 91 80.4146 91V91Z" fill="white"/>
<path opacity="0.2" d="M80.4146 91H39.7202C34.8757 91 31 87.1043 31 82.2348V35.7652C31 30.8957 34.8757 27 39.7202 27H80.2762C85.1207 27 88.9964 30.8957 88.9964 35.7652V82.0957C89.1348 87.1043 85.2592 91 80.4146 91V91Z" fill="#382673"/>
<path d="M77.4146 91H36.7202C31.8757 91 28 87.1043 28 82.2348V35.7652C28 30.8957 31.8757 27 36.7202 27H77.2762C82.1207 27 85.9964 30.8957 85.9964 35.7652V82.0957C86.1348 87.1043 82.2592 91 77.4146 91V91Z" fill="white"/>
<path d="M37.1888 86C35.3864 86 34 84.6053 34 82.7921V36.2079C34 34.3947 35.3864 33 37.1888 33H77.8112C79.6136 33 81 34.3947 81 36.2079V82.6526C81 84.4658 79.6136 85.8605 77.8112 85.8605H37.1888V86Z" fill="#473080"/>
<path d="M35.3864 38.9627C35.3864 37.16 36.7729 35.7733 38.5752 35.7733H79.1976C79.8909 35.7733 80.4454 36.0507 81 36.328V36.1893C81 34.3867 79.6136 33 77.8112 33H37.1888C35.3864 33 34 34.3867 34 36.1893V82.3653C34 83.4747 34.5546 84.4453 35.3864 85V38.9627Z" fill="#382673"/>
<path d="M77.2143 15H43.7857C42.2536 15 41 16.2516 41 17.7812V27.5156H80V17.7812C80 16.2516 78.7464 15 77.2143 15ZM43.7857 104H77.2143C78.7464 104 80 102.748 80 101.219V91.4844H41V101.219C41 102.748 42.2536 104 43.7857 104Z" fill="#0CAFE8"/>
<path d="M74 91V101.111C74 102.7 72.65 104 71 104H77C78.65 104 80 102.7 80 101.111V91H74Z" fill="#0B90D3"/>
<path d="M90.375 52C91.25 52 92 51.191 92 50.2472V41.7528C92 40.809 91.25 40 90.375 40C88.5 40 87 41.618 87 43.6404V48.6292C87 50.382 88.5 52 90.375 52V52Z" fill="white"/>
<path opacity="0.4" d="M89.8571 48.3077V43.4286C89.8571 42.1099 90.7143 40.9231 92 40.2637C91.5714 40.1319 91.2857 40 90.8571 40C88.7143 40 87 41.5824 87 43.5604V48.4396C87 50.4176 88.7143 52 90.8571 52C91.2857 52 91.7143 51.8681 92 51.6044C90.7143 50.9451 89.8571 49.7582 89.8571 48.3077V48.3077Z" fill="#382673"/>
<path d="M89 79C90.65 79 92 77.7143 92 76.1429V61.8571C92 60.2857 90.65 59 89 59V79Z" fill="white"/>
<path d="M81 91.2281H38C38 92.7526 39.2484 94 40.7742 94H78.2258C79.7516 94 81 92.7526 81 91.2281ZM76.5613 15H71.0129C72.5387 15 73.7871 16.2474 73.7871 17.7719V27.4737H79.3355V17.7719C79.3355 16.2474 78.0871 15 76.5613 15Z" fill="#0B90D3"/>
<path d="M81 27H38C38 25.35 39.2484 24 40.7742 24H78.2258C79.7516 24 81 25.35 81 27Z" fill="#0CAFE8"/>
<path d="M78.2 24H74C75.54 24 76.8 25.35 76.8 27H81C81 25.35 79.74 24 78.2 24Z" fill="#0B90D3"/>
<path d="M78.2 94H74C75.54 94 76.8 92.65 76.8 91H81C81 92.65 79.74 94 78.2 94Z" fill="#007BC6"/>
<path d="M72.0534 60.4222C72.3203 52.2548 65.9157 45.4174 57.7483 45.1506C49.5809 44.8837 42.7435 51.2883 42.4766 59.4557C42.2098 67.6231 48.6144 74.4605 56.7818 74.7274C64.9492 74.9943 71.7866 68.5896 72.0534 60.4222Z" fill="#00C2A9"/>
<path opacity="0.4" d="M88 59H89V79H88V59Z" fill="#382673"/>
<path d="M52.6 53V67H49.7V55.4H49.5L47.1 56.7L46.2 55.4L49.6 53H52.6ZM62.2078 54C61.6878 54 61.1811 54.1133 60.6878 54.34C60.1945 54.5533 59.7545 54.9 59.3678 55.38C58.9945 55.86 58.6878 56.48 58.4478 57.24C58.2211 58 58.1078 58.92 58.1078 60C58.1078 61.08 58.2211 62 58.4478 62.76C58.6878 63.52 58.9945 64.14 59.3678 64.62C59.7545 65.1 60.1945 65.4533 60.6878 65.68C61.1811 65.8933 61.6878 66 62.2078 66C62.7278 66 63.2345 65.8933 63.7278 65.68C64.2211 65.4533 64.6545 65.1 65.0278 64.62C65.4145 64.14 65.7211 63.52 65.9478 62.76C66.1878 62 66.3078 61.08 66.3078 60C66.3078 58.92 66.1878 58 65.9478 57.24C65.7211 56.48 65.4145 55.86 65.0278 55.38C64.6545 54.9 64.2211 54.5533 63.7278 54.34C63.2345 54.1133 62.7278 54 62.2078 54ZM62.2078 52.6C63.2611 52.6 64.2278 52.7533 65.1078 53.06C65.9878 53.3533 66.7478 53.8067 67.3878 54.42C68.0278 55.0333 68.5211 55.8067 68.8678 56.74C69.2278 57.66 69.4078 58.7467 69.4078 60C69.4078 61.2533 69.2278 62.3467 68.8678 63.28C68.5211 64.2 68.0278 64.9667 67.3878 65.58C66.7478 66.1933 65.9878 66.6533 65.1078 66.96C64.2278 67.2533 63.2611 67.4 62.2078 67.4C61.1545 67.4 60.1878 67.2533 59.3078 66.96C58.4278 66.6533 57.6678 66.1933 57.0278 65.58C56.3878 64.9667 55.8878 64.2 55.5278 63.28C55.1811 62.3467 55.0078 61.2533 55.0078 60C55.0078 58.7467 55.1811 57.66 55.5278 56.74C55.8878 55.8067 56.3878 55.0333 57.0278 54.42C57.6678 53.8067 58.4278 53.3533 59.3078 53.06C60.1878 52.7533 61.1545 52.6 62.2078 52.6Z" fill="white"/>
</svg>
